<mxfile host="app.diagrams.net" modified="2024-03-13T17:44:25.912Z" agent="Mozilla/5.0 (Windows NT 10.0; Win64; x64) AppleWebKit/537.36 (KHTML, like Gecko) Chrome/122.0.0.0 Safari/537.36" etag="egMPTjwEuDCCrAKqZcnZ" version="24.0.5" type="device">
  <diagram id="C5RBs43oDa-KdzZeNtuy" name="Page-1">
    <mxGraphModel dx="880" dy="478" grid="1" gridSize="10" guides="1" tooltips="1" connect="1" arrows="1" fold="1" page="1" pageScale="1" pageWidth="827" pageHeight="1169" math="0" shadow="0">
      <root>
        <mxCell id="WIyWlLk6GJQsqaUBKTNV-0" />
        <mxCell id="WIyWlLk6GJQsqaUBKTNV-1" parent="WIyWlLk6GJQsqaUBKTNV-0" />
        <mxCell id="IE3MQW7BKizZKPGGpwM8-16" style="edgeStyle=orthogonalEdgeStyle;rounded=0;orthogonalLoop=1;jettySize=auto;html=1;" edge="1" parent="WIyWlLk6GJQsqaUBKTNV-1" source="IE3MQW7BKizZKPGGpwM8-4" target="IE3MQW7BKizZKPGGpwM8-12">
          <mxGeometry relative="1" as="geometry" />
        </mxCell>
        <mxCell id="IE3MQW7BKizZKPGGpwM8-4" value="Processos" style="rounded=0;whiteSpace=wrap;html=1;" vertex="1" parent="WIyWlLk6GJQsqaUBKTNV-1">
          <mxGeometry x="330" y="130" width="120" height="60" as="geometry" />
        </mxCell>
        <mxCell id="IE3MQW7BKizZKPGGpwM8-9" style="edgeStyle=orthogonalEdgeStyle;rounded=0;orthogonalLoop=1;jettySize=auto;html=1;" edge="1" parent="WIyWlLk6GJQsqaUBKTNV-1" source="IE3MQW7BKizZKPGGpwM8-5" target="IE3MQW7BKizZKPGGpwM8-4">
          <mxGeometry relative="1" as="geometry" />
        </mxCell>
        <mxCell id="IE3MQW7BKizZKPGGpwM8-10" style="edgeStyle=orthogonalEdgeStyle;rounded=0;orthogonalLoop=1;jettySize=auto;html=1;entryX=0.5;entryY=0;entryDx=0;entryDy=0;" edge="1" parent="WIyWlLk6GJQsqaUBKTNV-1" source="IE3MQW7BKizZKPGGpwM8-5" target="IE3MQW7BKizZKPGGpwM8-8">
          <mxGeometry relative="1" as="geometry" />
        </mxCell>
        <mxCell id="IE3MQW7BKizZKPGGpwM8-11" style="edgeStyle=orthogonalEdgeStyle;rounded=0;orthogonalLoop=1;jettySize=auto;html=1;entryX=0.5;entryY=0;entryDx=0;entryDy=0;" edge="1" parent="WIyWlLk6GJQsqaUBKTNV-1" source="IE3MQW7BKizZKPGGpwM8-5" target="IE3MQW7BKizZKPGGpwM8-6">
          <mxGeometry relative="1" as="geometry" />
        </mxCell>
        <mxCell id="IE3MQW7BKizZKPGGpwM8-5" value="Sistema Empréstimos e Devolução de Livros Biblioteca" style="rounded=0;whiteSpace=wrap;html=1;" vertex="1" parent="WIyWlLk6GJQsqaUBKTNV-1">
          <mxGeometry x="330" y="30" width="120" height="60" as="geometry" />
        </mxCell>
        <mxCell id="IE3MQW7BKizZKPGGpwM8-15" style="edgeStyle=orthogonalEdgeStyle;rounded=0;orthogonalLoop=1;jettySize=auto;html=1;entryX=0.5;entryY=0;entryDx=0;entryDy=0;" edge="1" parent="WIyWlLk6GJQsqaUBKTNV-1" source="IE3MQW7BKizZKPGGpwM8-6" target="IE3MQW7BKizZKPGGpwM8-13">
          <mxGeometry relative="1" as="geometry" />
        </mxCell>
        <mxCell id="IE3MQW7BKizZKPGGpwM8-6" value="Cadastros" style="rounded=0;whiteSpace=wrap;html=1;" vertex="1" parent="WIyWlLk6GJQsqaUBKTNV-1">
          <mxGeometry x="130" y="130" width="120" height="60" as="geometry" />
        </mxCell>
        <mxCell id="IE3MQW7BKizZKPGGpwM8-17" style="edgeStyle=orthogonalEdgeStyle;rounded=0;orthogonalLoop=1;jettySize=auto;html=1;" edge="1" parent="WIyWlLk6GJQsqaUBKTNV-1" source="IE3MQW7BKizZKPGGpwM8-8" target="IE3MQW7BKizZKPGGpwM8-14">
          <mxGeometry relative="1" as="geometry" />
        </mxCell>
        <mxCell id="IE3MQW7BKizZKPGGpwM8-8" value="Consultas e Relatórios" style="rounded=0;whiteSpace=wrap;html=1;" vertex="1" parent="WIyWlLk6GJQsqaUBKTNV-1">
          <mxGeometry x="530" y="130" width="120" height="60" as="geometry" />
        </mxCell>
        <mxCell id="IE3MQW7BKizZKPGGpwM8-21" style="edgeStyle=orthogonalEdgeStyle;rounded=0;orthogonalLoop=1;jettySize=auto;html=1;entryX=0.5;entryY=0;entryDx=0;entryDy=0;" edge="1" parent="WIyWlLk6GJQsqaUBKTNV-1" source="IE3MQW7BKizZKPGGpwM8-12" target="IE3MQW7BKizZKPGGpwM8-20">
          <mxGeometry relative="1" as="geometry" />
        </mxCell>
        <mxCell id="IE3MQW7BKizZKPGGpwM8-12" value="Empréstimo Livros" style="rounded=0;whiteSpace=wrap;html=1;" vertex="1" parent="WIyWlLk6GJQsqaUBKTNV-1">
          <mxGeometry x="330" y="220" width="120" height="60" as="geometry" />
        </mxCell>
        <mxCell id="IE3MQW7BKizZKPGGpwM8-13" value="Cadastro Livros" style="rounded=0;whiteSpace=wrap;html=1;" vertex="1" parent="WIyWlLk6GJQsqaUBKTNV-1">
          <mxGeometry x="130" y="220" width="120" height="60" as="geometry" />
        </mxCell>
        <mxCell id="IE3MQW7BKizZKPGGpwM8-22" style="edgeStyle=orthogonalEdgeStyle;rounded=0;orthogonalLoop=1;jettySize=auto;html=1;entryX=0.5;entryY=0;entryDx=0;entryDy=0;" edge="1" parent="WIyWlLk6GJQsqaUBKTNV-1" source="IE3MQW7BKizZKPGGpwM8-14" target="IE3MQW7BKizZKPGGpwM8-19">
          <mxGeometry relative="1" as="geometry" />
        </mxCell>
        <mxCell id="IE3MQW7BKizZKPGGpwM8-14" value="Consulta Livros" style="rounded=0;whiteSpace=wrap;html=1;" vertex="1" parent="WIyWlLk6GJQsqaUBKTNV-1">
          <mxGeometry x="530" y="220" width="120" height="60" as="geometry" />
        </mxCell>
        <mxCell id="IE3MQW7BKizZKPGGpwM8-18" value="Devolução Livros" style="rounded=0;whiteSpace=wrap;html=1;" vertex="1" parent="WIyWlLk6GJQsqaUBKTNV-1">
          <mxGeometry x="530" y="400" width="120" height="60" as="geometry" />
        </mxCell>
        <mxCell id="IE3MQW7BKizZKPGGpwM8-23" style="edgeStyle=orthogonalEdgeStyle;rounded=0;orthogonalLoop=1;jettySize=auto;html=1;entryX=0.5;entryY=0;entryDx=0;entryDy=0;" edge="1" parent="WIyWlLk6GJQsqaUBKTNV-1" source="IE3MQW7BKizZKPGGpwM8-19" target="IE3MQW7BKizZKPGGpwM8-18">
          <mxGeometry relative="1" as="geometry" />
        </mxCell>
        <mxCell id="IE3MQW7BKizZKPGGpwM8-19" value="Consulta Empréstimos" style="rounded=0;whiteSpace=wrap;html=1;" vertex="1" parent="WIyWlLk6GJQsqaUBKTNV-1">
          <mxGeometry x="530" y="310" width="120" height="60" as="geometry" />
        </mxCell>
        <mxCell id="IE3MQW7BKizZKPGGpwM8-20" value="Devolução Livros" style="rounded=0;whiteSpace=wrap;html=1;" vertex="1" parent="WIyWlLk6GJQsqaUBKTNV-1">
          <mxGeometry x="330" y="310" width="120" height="60" as="geometry" />
        </mxCell>
      </root>
    </mxGraphModel>
  </diagram>
</mxfile>
